<svg id="sam-face-svg" version="1.1" width="419" height="419" viewBox="0 0 419 419"
    xmlns="http://www.w3.org/2000/svg">
    <path
        d="M180.179 14.005 C 177.802 15.083,174.084 17.484,171.916 19.340 C 168.367 22.378,167.157 22.783,159.805 23.396 C 140.439 25.011,130.959 35.162,111.783 74.819 C 101.604 95.868,97.712 105.308,96.124 112.799 C 94.414 120.861,94.734 123.934,98.001 130.840 C 100.170 135.424,101.000 138.661,101.000 142.531 C 101.000 145.474,101.461 148.167,102.024 148.515 C 102.587 148.863,105.119 148.356,107.652 147.389 C 111.987 145.733,112.329 145.730,113.504 147.336 C 114.190 148.274,115.055 150.945,115.426 153.271 C 115.797 155.597,116.741 158.478,117.523 159.673 C 118.804 161.630,118.674 162.327,116.223 166.673 L 113.500 171.500 113.651 192.500 C 113.756 207.212,114.272 215.746,115.372 221.000 C 116.608 226.907,116.844 227.438,116.483 223.500 C 116.231 220.750,115.526 213.100,114.915 206.500 C 113.257 188.560,114.038 173.689,116.954 167.672 C 118.971 163.510,119.584 162.952,121.397 163.631 C 122.554 164.064,126.875 164.429,131.000 164.441 C 136.882 164.459,139.542 163.955,143.330 162.104 C 148.908 159.379,151.207 155.779,148.866 153.437 C 147.547 152.119,146.526 152.125,139.938 153.495 C 130.464 155.466,122.927 157.887,120.966 159.588 C 119.670 160.712,119.254 160.637,118.299 159.107 C 117.676 158.110,116.856 155.223,116.477 152.692 C 115.425 145.679,114.032 144.298,109.344 145.623 C 107.230 146.220,104.831 146.887,104.014 147.104 C 102.855 147.413,102.389 146.070,101.895 141.000 C 101.519 137.147,100.142 132.120,98.514 128.656 C 96.171 123.671,95.867 122.054,96.447 117.656 C 97.552 109.276,101.438 99.110,111.413 78.497 C 127.476 45.308,135.829 33.191,146.346 27.822 C 148.853 26.543,153.781 25.369,158.778 24.862 C 167.235 24.004,171.539 22.469,174.073 19.407 C 178.647 13.878,192.327 11.345,199.782 14.647 C 202.162 15.700,208.000 16.555,216.000 17.021 C 235.356 18.148,243.831 21.735,255.079 33.560 C 258.061 36.695,261.349 40.079,262.386 41.081 C 263.423 42.082,267.419 43.617,271.266 44.492 C 275.112 45.367,279.447 46.697,280.898 47.447 C 284.339 49.227,293.252 59.515,297.583 66.707 C 300.723 71.922,301.010 73.077,301.118 80.941 C 301.230 89.132,301.273 89.285,302.108 84.500 C 303.764 75.014,301.227 68.193,291.694 56.500 C 285.000 48.290,280.807 45.299,274.135 43.978 C 271.036 43.364,267.641 42.615,266.591 42.313 C 265.540 42.011,260.815 37.832,256.091 33.026 C 243.444 20.164,233.516 16.024,215.201 15.978 C 208.704 15.962,205.396 15.455,202.141 13.978 C 196.285 11.321,186.066 11.333,180.179 14.005 M183.500 63.649 C 156.151 68.031,133.214 87.513,123.274 114.804 C 120.368 122.782,120.730 127.065,124.656 131.162 C 128.422 135.094,132.940 136.100,143.517 135.365 C 152.362 134.750,152.599 134.791,155.889 137.560 C 159.167 140.318,159.231 140.520,158.692 146.441 C 158.337 150.337,156.331 157.073,153.073 165.305 C 147.524 179.329,146.416 184.073,147.429 189.474 C 148.299 194.109,153.232 199.672,157.257 200.556 C 159.345 201.015,162.322 203.309,165.965 207.267 C 169.009 210.575,175.652 216.396,180.727 220.204 C 189.544 226.818,194.000 231.183,194.000 233.202 C 194.000 234.904,189.625 232.900,177.630 225.702 C 168.656 220.317,164.508 218.416,160.630 217.912 C 157.808 217.545,154.117 216.672,152.426 215.970 C 150.594 215.210,148.193 214.986,146.480 215.416 C 142.784 216.343,137.000 222.465,137.000 225.449 C 137.000 229.825,138.938 230.320,150.523 228.904 C 158.973 227.871,162.540 227.857,168.240 228.834 C 175.350 230.054,183.007 233.436,183.736 235.680 C 184.276 237.341,176.247 238.378,169.244 237.551 C 161.916 236.685,145.260 233.416,142.006 232.204 C 140.203 231.533,137.987 231.792,134.006 233.139 C 123.008 236.860,120.983 239.209,121.024 248.200 C 121.075 259.648,132.866 279.876,143.425 286.629 C 145.033 287.658,149.513 289.625,153.380 291.000 C 158.877 292.955,160.808 294.185,162.233 296.641 C 165.421 302.132,169.059 316.781,170.056 328.137 C 171.143 340.534,173.086 349.992,179.580 374.500 C 182.058 383.850,184.708 394.650,185.470 398.500 C 187.352 408.005,188.463 410.602,191.501 412.592 C 193.753 414.068,194.639 414.125,198.295 413.030 C 204.083 411.297,208.307 407.710,219.595 394.943 C 224.932 388.907,243.294 370.443,260.399 353.910 C 278.289 336.619,292.456 322.117,293.750 319.768 C 294.988 317.523,296.000 313.978,296.000 311.892 C 296.000 307.509,294.040 297.626,293.315 298.352 C 293.046 298.621,293.358 301.406,294.008 304.540 C 294.681 307.780,294.892 312.235,294.497 314.865 C 293.752 319.835,295.131 318.399,240.151 371.500 C 233.887 377.550,223.996 387.857,218.171 394.405 C 206.742 407.253,200.568 412.000,195.290 412.000 C 192.624 412.000,191.585 411.367,190.014 408.783 C 188.938 407.013,187.787 403.525,187.456 401.033 C 187.125 398.540,185.804 392.900,184.521 388.500 C 177.496 364.416,171.000 334.477,171.000 326.181 C 171.000 320.041,166.777 302.443,163.995 296.991 C 162.002 293.084,159.426 291.512,150.010 288.460 C 140.764 285.462,130.743 273.646,124.433 258.302 C 121.512 251.198,121.325 244.619,123.923 240.358 C 125.410 237.921,127.328 236.721,132.486 235.005 C 136.142 233.788,140.116 233.019,141.317 233.295 C 142.518 233.572,147.775 234.768,153.000 235.955 C 169.935 239.800,185.159 239.586,185.313 235.500 C 185.367 234.065,179.360 230.206,175.118 228.951 C 169.126 227.178,155.795 226.656,148.584 227.912 C 144.878 228.557,140.980 228.811,139.922 228.475 C 137.124 227.587,137.565 224.566,141.076 220.566 C 144.610 216.542,149.522 215.129,153.145 217.095 C 154.440 217.799,157.846 218.699,160.713 219.096 C 164.704 219.648,168.570 221.464,177.213 226.843 C 189.726 234.631,193.623 236.145,194.601 233.598 C 195.608 230.974,192.652 227.630,182.736 220.178 C 173.449 213.197,165.000 205.482,165.000 203.982 C 165.000 203.552,167.646 203.200,170.879 203.200 C 180.340 203.200,184.243 199.482,180.311 194.215 C 176.930 189.687,163.260 186.880,159.556 189.953 C 157.769 191.436,157.525 195.243,159.035 198.066 C 160.398 200.612,158.496 200.643,154.695 198.137 C 149.947 195.007,148.514 192.070,148.525 185.500 C 148.534 180.583,149.513 177.062,153.948 166.000 C 160.670 149.233,161.619 141.993,157.691 137.428 C 155.176 134.506,155.148 134.500,143.336 134.436 C 129.628 134.362,126.259 133.172,123.541 127.445 C 121.303 122.728,122.458 117.794,128.558 106.018 C 134.170 95.183,140.312 87.398,148.237 81.070 C 165.684 67.141,182.241 62.453,203.407 65.451 C 213.638 66.899,236.876 73.816,244.149 77.577 C 245.717 78.388,247.000 78.650,247.000 78.158 C 247.000 76.466,223.324 68.207,210.573 65.450 C 203.140 63.844,188.404 62.863,183.500 63.649 M299.709 92.744 C 299.420 94.254,299.358 95.770,299.571 96.114 C 299.783 96.459,302.657 97.750,305.956 98.983 C 317.419 103.271,320.509 108.382,320.476 123.000 C 320.454 132.563,320.078 134.660,316.257 146.500 C 311.891 160.030,309.814 168.147,310.533 168.866 C 310.764 169.097,311.122 168.659,311.330 167.893 C 311.537 167.127,312.408 163.800,313.265 160.500 C 314.123 157.200,316.439 149.173,318.412 142.662 C 322.331 129.731,323.112 119.453,320.770 111.616 C 319.030 105.792,312.772 99.908,305.812 97.553 C 300.417 95.727,300.153 95.483,300.687 92.814 C 300.997 91.266,301.021 90.000,300.742 90.000 C 300.462 90.000,299.997 91.235,299.709 92.744 M264.750 115.056 C 263.788 115.630,263.000 116.802,263.000 117.660 C 263.000 118.843,263.428 118.693,264.762 117.045 C 266.249 115.209,266.943 115.028,269.202 115.887 C 273.014 117.336,273.651 119.191,274.395 131.000 C 274.758 136.775,276.447 148.475,278.147 157.000 C 282.857 180.618,281.631 190.446,271.368 211.359 C 268.415 217.374,266.032 223.242,266.070 224.398 C 266.116 225.765,266.650 225.102,267.597 222.500 C 268.398 220.300,271.067 214.409,273.527 209.410 C 279.001 198.285,282.000 187.007,282.000 177.546 C 282.000 173.563,280.675 163.898,279.000 155.664 C 277.350 147.553,276.000 137.808,276.000 134.008 C 276.000 126.100,274.416 117.590,272.676 116.146 C 270.705 114.510,266.610 113.947,264.750 115.056 M262.160 123.316 C 261.953 128.256,260.625 130.625,257.020 132.490 C 253.073 134.531,250.426 134.409,236.628 131.547 C 230.123 130.199,219.959 128.788,214.041 128.414 C 196.709 127.317,189.957 129.966,187.940 138.653 C 186.878 143.229,187.733 151.253,189.547 153.732 C 191.355 156.202,198.822 155.931,206.969 153.099 C 223.694 147.287,234.282 148.744,235.227 156.988 C 235.681 160.948,230.779 161.708,218.389 159.598 C 208.619 157.934,202.000 158.101,202.000 160.010 C 202.000 160.478,203.396 160.460,205.103 159.970 C 207.158 159.381,210.958 159.567,216.353 160.522 C 229.672 162.878,237.004 162.080,236.996 158.275 C 236.989 154.844,233.241 150.235,229.440 148.980 C 224.643 147.397,218.881 148.145,206.627 151.941 C 194.988 155.547,193.639 155.639,191.000 153.000 C 189.382 151.382,189.000 149.667,189.000 144.016 C 189.000 137.796,189.301 136.701,191.750 134.011 C 196.971 128.277,211.495 127.807,235.721 132.588 C 242.443 133.915,249.553 135.000,251.521 135.000 C 258.984 135.000,263.605 130.000,262.732 122.869 L 262.320 119.500 262.160 123.316 M149.000 155.427 C 149.000 160.921,128.841 166.552,123.441 162.567 C 120.681 160.530,122.126 159.524,132.000 156.613 C 141.787 153.727,149.000 153.224,149.000 155.427 M303.403 178.089 C 299.402 179.237,292.023 185.793,289.626 190.329 C 287.151 195.013,288.048 197.767,293.276 201.538 C 295.592 203.209,297.618 205.256,297.778 206.088 C 298.633 210.526,288.285 219.000,282.011 219.000 C 278.474 219.000,275.332 221.429,273.029 225.943 C 270.605 230.694,268.253 231.787,267.025 228.733 C 266.132 226.513,266.126 226.513,266.063 228.643 C 265.907 233.928,270.983 231.449,276.290 223.649 C 277.274 222.202,279.299 220.769,280.790 220.464 C 290.811 218.413,297.179 214.120,298.600 208.457 C 299.473 204.980,298.385 203.226,293.157 199.684 C 288.845 196.763,288.219 194.961,290.285 191.417 C 296.516 180.729,307.590 175.741,312.792 181.278 C 317.873 186.687,319.532 200.026,316.349 209.881 C 312.999 220.256,304.106 227.088,279.597 238.117 C 264.704 244.818,261.740 247.078,255.175 256.738 C 249.825 264.611,243.790 270.629,239.274 272.598 C 234.540 274.662,223.220 274.977,219.773 273.140 C 216.749 271.529,215.014 268.123,214.964 263.703 C 214.930 260.569,212.892 251.149,211.531 247.827 C 209.666 243.277,204.745 245.352,199.697 252.818 C 194.455 260.569,185.462 268.859,178.737 272.140 C 175.033 273.946,173.719 274.918,175.500 274.532 C 183.182 272.868,192.868 264.852,200.308 254.000 C 203.907 248.751,205.822 247.076,208.275 247.032 C 210.527 246.991,211.411 249.432,212.973 260.000 C 213.663 264.675,214.887 269.550,215.692 270.834 C 219.369 276.696,231.271 277.549,241.254 272.664 C 246.076 270.305,247.942 268.445,254.942 259.017 C 264.095 246.691,265.668 245.359,276.644 240.631 C 298.020 231.422,308.404 225.186,313.057 218.763 C 319.572 209.769,321.157 197.160,317.087 186.718 C 314.091 179.034,309.720 176.277,303.403 178.089 M174.844 191.554 C 177.176 192.487,179.215 194.176,179.945 195.779 C 181.819 199.891,178.592 202.000,170.428 202.000 C 165.147 202.000,163.728 201.624,162.000 199.770 C 159.303 196.874,158.458 193.358,160.011 191.487 C 161.653 189.508,169.822 189.545,174.844 191.554 M279.000 253.442 C 279.000 259.118,278.957 259.206,276.475 258.583 C 273.530 257.844,273.502 257.597,277.995 271.736 L 280.780 280.500 280.231 271.602 L 279.682 262.703 282.341 263.371 C 283.803 263.738,285.000 263.881,285.000 263.690 C 285.000 263.074,279.743 248.515,279.365 248.083 C 279.164 247.854,279.000 250.265,279.000 253.442 M248.293 286.684 C 241.942 295.061,241.050 295.620,231.975 296.898 C 210.967 299.856,204.636 302.600,200.592 310.500 C 198.373 314.834,198.070 322.999,199.925 328.500 C 200.719 330.856,200.811 330.054,200.354 324.768 C 199.604 316.110,200.454 311.802,203.666 307.986 C 207.767 303.112,212.924 301.147,227.724 298.820 C 242.690 296.467,241.909 296.874,249.348 287.564 C 252.460 283.671,255.798 282.941,258.435 285.578 C 260.286 287.429,264.451 296.222,267.137 303.952 C 271.550 316.652,279.627 317.418,281.566 305.320 C 282.421 299.992,286.167 292.561,288.186 292.189 C 289.203 292.001,290.477 292.993,291.396 294.689 C 292.468 296.667,292.932 296.981,292.960 295.750 C 293.002 293.916,289.670 290.000,288.068 290.000 C 286.203 290.000,283.052 295.838,281.083 302.942 C 278.958 310.612,277.612 313.000,275.417 313.000 C 273.274 313.000,270.166 309.033,268.430 304.081 C 265.609 296.038,261.646 287.570,259.618 285.250 C 256.424 281.596,251.696 282.195,248.293 286.684 "
        stroke="white" fill="white" fill-rule="evenodd" />
</svg>